<svg width="2048px" height="2048px" viewBox="0 0 2048 2048" version="1.1" xmlns="http://www.w3.org/2000/svg">
    <path d="M1024,2048 C1163.33333,2048 1296.16667,2021 1422.5,1967 C1548.83333,1913 1657.66667,1840.33333 1749,1749 C1840.33333,1657.66667 1913,1548.83333 1967,1422.5 C2021,1296.16667 2048,1163.33333 2048,1024 C2048,884.666667 2021,751.833333 1967,625.5 C1913,499.166667 1840.33333,390.333333 1749,299 C1657.66667,207.666667 1548.83333,135 1422.5,81 C1296.16667,27 1163.33333,0 1024,0 C884.666667,0 751.833333,27 625.5,81 C499.166667,135 390.333333,207.666667 299,299 C207.666667,390.333333 135,499.166667 81,625.5 C27,751.833333 0,884.666667 0,1024 C0,1163.33333 27,1296.16667 81,1422.5 C135,1548.83333 207.666667,1657.66667 299,1749 C390.333333,1840.33333 499.166667,1913 625.5,1967 C751.833333,2021 884.666667,2048 1024,2048 L1024,2048 Z M1647,1249 C1699,1285.66667 1747.33333,1335.66667 1792,1399 C1738,1376.33333 1682,1361 1624,1353 C1685.33333,1389 1727,1443 1749,1515 C1693,1481.66667 1632.33333,1458 1567,1444 C1510.33333,1505.33333 1440,1536 1356,1536 C1275.33333,1536 1207,1507.66667 1151,1451 C1095,1394.33333 1067,1325.33333 1067,1244 C1067,1219.33333 1069.33333,1197.33333 1074,1178 C954.666667,1184 842.833333,1214 738.5,1268 C634.166667,1322 545.333333,1394 472,1484 C446.666667,1436.66667 434,1387.66667 434,1337 C434,1287 445.5,1240.83333 468.5,1198.5 C491.5,1156.16667 522.666667,1121.66667 562,1095 C516,1095 472.333333,1107 431,1131 L431,1128 C431,1058 453,996.333333 497,943 C541,889.666667 596.666667,855.666667 664,841 C643.333333,835 618,832 588,832 C570,832 551.666667,833.666667 533,837 C551,779 584.833333,732 634.5,696 C684.166667,660 740.666667,641.333333 804,640 C690,551.333333 569.666667,507 443,507 C433,507 410.333333,508.666667 375,512 C506.333333,426.666667 654.666667,384 820,384 C923.333333,384 1020.33333,400.333333 1111,433 C1201.66667,465.666667 1279.16667,509.5 1343.5,564.5 C1407.83333,619.5 1463.16667,682.666667 1509.5,754 C1555.83333,825.333333 1590.33333,899.833333 1613,977.5 C1635.66667,1055.16667 1647,1133 1647,1211 L1647,1249 L1647,1249 Z" />
</svg>
