<svg width="2048px" height="2017px" viewBox="0 0 2048 2048" version="1.1" xmlns="http://www.w3.org/2000/svg">
    <title>ss-linkedin</title>
    <path d="M1024 2048q209 0 398.5 -81t326.5 -218t218 -326.5t81 -398.5t-81 -398.5t-218 -326.5t-326.5 -218t-398.5 -81t-398.5 81t-326.5 218t-218 326.5t-81 398.5t81 398.5t218 326.5t326.5 218t398.5 81zM597 1365q77 0 124 43t47 107q-2 65 -48 107t-123 42q-76 0 -123 -42 t-47 -107q0 -64 46.5 -107t121.5 -43h2zM725 512v725h-256v-725h256zM1664 512v384q0 176 -81 280t-218 104q-76 0 -132 -41.5t-81 -112.5l-9 111h-254l7 -170v-555h256v384q0 79 33.5 125t92.5 46q63 0 96.5 -39t33.5 -132v-384h256z" />
</svg>
