<svg width="2050px" height="2050px" viewBox="0 0 2050 2050" version="1.1" xmlns="http://www.w3.org/2000/svg">
    <title>ss-pinboard</title>
    <path d="M1024,2048 C1162.66667,2048 1295.16667,2021 1421.5,1967 C1547.83333,1913 1656.83333,1840.16667 1748.5,1748.5 C1840.16667,1656.83333 1913,1547.83333 1967,1421.5 C2021,1295.16667 2048,1162.66667 2048,1024 C2048,885.333333 2021,752.833333 1967,626.5 C1913,500.166667 1840.16667,391.166667 1748.5,299.5 C1656.83333,207.833333 1547.83333,135 1421.5,81 C1295.16667,27 1162.66667,0 1024,0 C885.333333,0 752.833333,27 626.5,81 C500.166667,135 391.166667,207.833333 299.5,299.5 C207.833333,391.166667 135,500.166667 81,626.5 C27,752.833333 0,885.333333 0,1024 C0,1162.66667 27,1295.16667 81,1421.5 C135,1547.83333 207.833333,1656.83333 299.5,1748.5 C391.166667,1840.16667 500.166667,1913 626.5,1967 C752.833333,2021 885.333333,2048 1024,2048 L1024,2048 Z M1656,392 C1668,405.333333 1668.33333,418 1657,430 L1237,941 L1471,1175 C1481.66667,1185.66667 1483,1197 1475,1209 C1467.66667,1222.33333 1457,1226.66667 1443,1222 L1231,1164 L797,1537 L826,1567 C837.333333,1578.33333 843,1591.66667 843,1607 C843,1622.33333 837.333333,1635.66667 826,1647 C815.333333,1658.33333 802,1664 786,1664 C770,1664 756.666667,1658.33333 746,1647 L401,1302 C389.666667,1291.33333 384,1278 384,1262 C384,1246 389.666667,1232.66667 401,1222 C411.666667,1210.66667 425,1205 441,1205 C457,1205 470.333333,1210.66667 481,1222 L511,1251 L884,817 L826,605 C821.333333,591 825.666667,580.333333 839,573 C843.666667,570.333333 848.333333,569 853,569 C861,569 867.666667,571.666667 873,577 L1107,811 L1618,391 C1622.66667,386.333333 1628.66667,384 1636,384 C1642.66667,384 1649.33333,386.666667 1656,392 L1656,392 Z" />
</svg>
