<svg width="2048px" height="2017px" viewBox="0 0 2048 2017" xmlns="http://www.w3.org/2000/svg">
    <title>ss-github</title>
    <path d="M1024,2017 C1162.66667,2017 1295.16667,1989.83333 1421.5,1935.5 C1547.83333,1881.16667 1656.66667,1808.33333 1748,1717 C1839.33333,1625.66667 1912.16667,1516.83333 1966.5,1390.5 C2020.83333,1264.16667 2048,1131.66667 2048,993 C2048,837 2014.66667,689.833333 1948,551.5 C1881.33333,413.166667 1789.83333,296.166667 1673.5,200.5 C1557.16667,104.833333 1426,38 1280,0 L1280,268 C1280,318.666667 1271.83333,368.5 1255.5,417.5 C1239.16667,466.5 1211.66667,506 1173,536 C1266.33333,550 1349.5,576.5 1422.5,615.5 C1495.5,654.5 1554,706.666667 1598,772 C1642,837.333333 1664,911 1664,993 C1664,1100.33333 1624.33333,1198.33333 1545,1287 C1574.33333,1417 1571.33333,1518 1536,1590 C1450,1582.66667 1351.33333,1545 1240,1477 C1162,1495.66667 1090,1505 1024,1505 C958,1505 886,1495.66667 808,1477 C696.666667,1545 598,1582.66667 512,1590 C474.666667,1514.66667 471.666667,1413.66667 503,1287 C423.666667,1198.33333 384,1100.33333 384,993 C384,911 406,837.333333 450,772 C494,706.666667 552.5,654.5 625.5,615.5 C698.5,576.5 781.666667,550 875,536 C838.333333,508 810.666667,469 792,419 C762.666667,418.333333 733,421 703,427 C673,433 645.666667,440.833333 621,450.5 C596.333333,460.166667 572.5,470.833333 549.5,482.5 C526.5,494.166667 506.333333,506 489,518 C471.666667,530 456.5,541 443.5,551 C430.5,561 420.666667,569 414,575 L403,585 C391.666667,596.333333 380.666667,598 370,590 C357.333333,582.666667 352.666667,571.666667 356,557 C359.333333,548.333333 361.666667,542.333333 363,539 C364.333333,535.666667 371,523 383,501 C395,479 406.833333,460.166667 418.5,444.5 C430.166667,428.833333 447.833333,408.166667 471.5,382.5 C495.166667,356.833333 520.166667,334.5 546.5,315.5 C572.833333,296.5 605.333333,276.833333 644,256.5 C682.666667,236.166667 724,219.333333 768,206 L768,0 C622,38 490.833333,104.833333 374.5,200.5 C258.166667,296.166667 166.666667,413.166667 100,551.5 C33.3333333,689.833333 0,837 0,993 C0,1131.66667 27,1264.16667 81,1390.5 C135,1516.83333 207.666667,1625.66667 299,1717 C390.333333,1808.33333 499.166667,1881.16667 625.5,1935.5 C751.833333,1989.83333 884.666667,2017 1024,2017 L1024,2017 Z" />
</svg>
