<svg width="2048px" height="2048px" viewBox="0 0 2048 2048" version="1.1" xmlns="http://www.w3.org/2000/svg" xmlns:xlink="http://www.w3.org/1999/xlink" xmlns:sketch="http://www.bohemiancoding.com/sketch/ns">
    <path d="M1024,2048 C1162.66667,2048 1295.16667,2021 1421.5,1967 C1547.83333,1913 1656.83333,1840.16667 1748.5,1748.5 C1840.16667,1656.83333 1913,1547.83333 1967,1421.5 C2021,1295.16667 2048,1162.66667 2048,1024 C2048,885.333333 2021,752.833333 1967,626.5 C1913,500.166667 1840.16667,391.166667 1748.5,299.5 C1656.83333,207.833333 1547.83333,135 1421.5,81 C1295.16667,27 1162.66667,0 1024,0 C885.333333,0 752.833333,27 626.5,81 C500.166667,135 391.166667,207.833333 299.5,299.5 C207.833333,391.166667 135,500.166667 81,626.5 C27,752.833333 0,885.333333 0,1024 C0,1162.66667 27,1295.16667 81,1421.5 C135,1547.83333 207.833333,1656.83333 299.5,1748.5 C391.166667,1840.16667 500.166667,1913 626.5,1967 C752.833333,2021 885.333333,2048 1024,2048 L1024,2048 Z M1621,597 L1621,1451 C1621,1498.33333 1604.5,1538.5 1571.5,1571.5 C1538.5,1604.5 1498.33333,1621 1451,1621 L597,1621 C549.666667,1621 509.5,1604.5 476.5,1571.5 C443.5,1538.5 427,1498.33333 427,1451 L427,597 C427,549.666667 443.5,509.5 476.5,476.5 C509.5,443.5 549.666667,427 597,427 L1451,427 C1498.33333,427 1538.5,443.5 1571.5,476.5 C1604.5,509.5 1621,549.666667 1621,597 L1621,597 Z M1451,1493 C1462.33333,1493 1472.16667,1488.83333 1480.5,1480.5 C1488.83333,1472.16667 1493,1462.33333 1493,1451 L1493,1323 C1493,1311 1488.83333,1300.83333 1480.5,1292.5 C1472.16667,1284.16667 1462.33333,1280 1451,1280 L1323,1280 C1311,1280 1300.83333,1284.16667 1292.5,1292.5 C1284.16667,1300.83333 1280,1311 1280,1323 L1280,1451 C1280,1462.33333 1284.16667,1472.16667 1292.5,1480.5 C1300.83333,1488.83333 1311,1493 1323,1493 L1451,1493 L1451,1493 Z M1024,811 C965.333333,811 915.166667,831.833333 873.5,873.5 C831.833333,915.166667 811,965.333333 811,1024 C811,1082.66667 831.833333,1132.83333 873.5,1174.5 C915.166667,1216.16667 965.333333,1237 1024,1237 C1082.66667,1237 1132.83333,1216.16667 1174.5,1174.5 C1216.16667,1132.83333 1237,1082.66667 1237,1024 C1237,965.333333 1216.16667,915.166667 1174.5,873.5 C1132.83333,831.833333 1082.66667,811 1024,811 L1024,811 Z M1365,1024 C1365,1054.66667 1361.66667,1083 1355,1109 L1493,1109 L1493,597 C1493,585.666667 1488.83333,575.833333 1480.5,567.5 C1472.16667,559.166667 1462.33333,555 1451,555 L597,555 C585.666667,555 575.833333,559.166667 567.5,567.5 C559.166667,575.833333 555,585.666667 555,597 L555,1109 L693,1109 C686.333333,1083 683,1054.66667 683,1024 C683,930 716.166667,849.666667 782.5,783 C848.833333,716.333333 929.333333,683 1024,683 C1118.66667,683 1199.16667,716.333333 1265.5,783 C1331.83333,849.666667 1365,930 1365,1024 L1365,1024 Z"/>
</svg>
